<?xml version="1.0" encoding="UTF-8" standalone="no"?>
<!-- Generator: Gravit.io -->
<svg xmlns="http://www.w3.org/2000/svg" xmlns:xlink="http://www.w3.org/1999/xlink" style="isolation:isolate" viewBox="0 0 500 500" width="500" height="500">
<defs>
  <clipPath id="_clipPath_AQcq5u17XeE3HAFF9ggS6hL27F4wQOIV">
  <rect width="500" height="500"/>
  </clipPath>
</defs>
  <g clip-path="url(#_clipPath_AQcq5u17XeE3HAFF9ggS6hL27F4wQOIV)">
    <g>
      <g>
        <path d=" M 251 14 C 121.75 14 16 119.75 16 249 C 16 378.25 121.75 484 251 484 C 380.25 484 486 378.25 486 249 C 486 119.75 380.25 14 251 14 L 251 14 Z  M 413.15 155 L 345 155 C 337.95 124.45 326.2 98.6 312.1 70.4 C 354.4 86.85 392 115.05 413.15 155 L 413.15 155 Z  M 251 61 C 269.8 89.2 286.25 119.75 295.65 155 L 206.35 155 C 215.75 122.1 232.2 89.2 251 61 L 251 61 Z  M 70.05 296 C 65.35 281.9 63 265.45 63 249 C 63 232.55 65.35 216.1 70.05 202 L 149.95 202 C 147.6 218.45 147.6 232.55 147.6 249 C 147.6 265.45 149.95 279.55 149.95 296 L 70.05 296 L 70.05 296 Z  M 88.85 343 L 157 343 C 164.05 373.55 175.8 399.4 189.9 427.6 C 147.6 411.15 110 382.95 88.85 343 L 88.85 343 Z  M 157 155 L 88.85 155 C 112.35 115.05 147.6 86.85 189.9 70.4 C 175.8 98.6 164.05 124.45 157 155 L 157 155 Z  M 251 437 C 232.2 408.8 215.75 378.25 206.35 343 L 295.65 343 C 286.25 375.9 269.8 408.8 251 437 L 251 437 Z  M 305.05 296 L 196.95 296 C 194.6 279.55 192.25 265.45 192.25 249 C 192.25 232.55 194.6 218.45 196.95 202 L 307.4 202 C 309.75 218.45 312.1 232.55 312.1 249 C 312.1 265.45 307.4 279.55 305.05 296 L 305.05 296 Z  M 312.1 427.6 C 326.2 401.75 337.95 373.55 345 343 L 413.15 343 C 392 382.95 354.4 411.15 312.1 427.6 L 312.1 427.6 Z  M 354.4 296 C 356.75 279.55 356.75 265.45 356.75 249 C 356.75 232.55 354.4 218.45 354.4 202 L 434.3 202 C 439 216.1 441.35 232.55 441.35 249 C 441.35 265.45 439 281.9 434.3 296 L 354.4 296 L 354.4 296 Z " fill-rule="evenodd" fill="rgb(0,113,188)"/>
      </g>
    </g>
  </g>
</svg>
