<svg width="500" height="500" xmlns="http://www.w3.org/2000/svg"><path d="M69 296.5c0-45.533 36.743-82.5 82-82.5s82 36.967 82 82.5-36.743 82.5-82 82.5-82-36.967-82-82.5z" fill="#2D2D2D"/><path d="M161 332.5c0-45.533 36.743-82.5 82-82.5s82 36.967 82 82.5-36.743 82.5-82 82.5-82-36.967-82-82.5z" fill="#2D2D2D"/><path d="M248 296.5c0-45.533 36.743-82.5 82-82.5s82 36.967 82 82.5-36.743 82.5-82 82.5-82-36.967-82-82.5z" fill="#2D2D2D"/><path d="M211 199c0-45.533 36.743-82.5 82-82.5s82 36.967 82 82.5-36.743 82.5-82 82.5-82-36.967-82-82.5z" fill="#2D2D2D"/><path d="M106 238.5c0-45.533 36.743-82.5 82-82.5s82 36.967 82 82.5-36.743 82.5-82 82.5-82-36.967-82-82.5z" fill="#2D2D2D"/><path stroke-width="20" stroke="#2D2D2D" stroke-linecap="round" stroke-miterlimit="3" d="M29 250L142 69M186 129l48-84M322 96l36-66M401 410.5L474 274M24.5 415l37-59M125 479l36-64M293 465l32-61M397 210l80-141"/></svg>